<?xml version="1.0" standalone="no"?>
<!DOCTYPE svg PUBLIC "-//W3C//DTD SVG 20010904//EN"
 "http://www.w3.org/TR/2001/REC-SVG-20010904/DTD/svg10.dtd">
<svg version="1.0" xmlns="http://www.w3.org/2000/svg"
 width="1024.000000pt" height="1024.000000pt" viewBox="0 0 1024.000000 1024.000000"
 preserveAspectRatio="xMidYMid meet">

<g transform="translate(0.000000,1024.000000) scale(0.100000,-0.100000)"
fill="#000000" stroke="none">
<path d="M0 5120 l0 -5120 5120 0 5120 0 0 5120 0 5120 -5120 0 -5120 0 0
-5120z m4925 1339 c410 -31 710 -130 1175 -388 232 -129 169 -117 765 -156
470 -32 861 -115 1167 -250 101 -44 220 -118 253 -156 11 -13 0 -7 -25 13
-177 141 -540 266 -971 332 -159 25 -277 35 -184 15 22 -4 58 -8 80 -9 31 -1
35 -3 20 -9 -11 -5 -26 -6 -33 -3 -7 2 -20 -2 -29 -9 -10 -8 -14 -9 -10 -2 4
6 3 14 -2 18 -6 3 -15 -4 -21 -15 -14 -25 -25 -25 -50 0 -17 17 -24 18 -41 9
-13 -7 -19 -7 -15 -1 3 6 2 13 -4 17 -6 3 -10 -4 -11 -17 0 -23 0 -23 -10 2
l-10 25 -21 -25 c-14 -17 -19 -19 -15 -7 5 12 3 16 -4 11 -10 -6 -28 11 -29
28 0 11 114 -4 122 -16 6 -8 8 -7 8 2 0 6 8 13 18 14 9 0 -12 4 -48 8 -69 8
-221 10 -182 3 12 -3 22 -12 22 -21 0 -15 -2 -15 -10 -2 -9 13 -11 13 -19 0
-5 -8 -7 -18 -5 -22 3 -4 -3 -5 -12 -1 -11 4 -13 8 -6 11 14 4 16 22 3 22 -5
0 -16 -7 -24 -15 -12 -11 -16 -12 -20 -1 -3 8 -21 12 -46 12 -23 -1 -41 3 -41
8 0 5 -3 7 -6 3 -3 -3 -1 -14 5 -24 7 -12 10 -14 11 -4 0 8 3 12 6 8 14 -14
-7 -26 -26 -15 -10 7 -16 16 -13 22 3 5 1 6 -6 2 -6 -4 -23 -1 -36 8 -15 10
-26 12 -30 6 -3 -6 0 -10 7 -10 10 0 9 -3 -2 -10 -9 -6 -17 -5 -22 3 -5 8 -8
5 -9 -8 0 -11 -3 -14 -6 -7 -8 20 -23 14 -23 -10 0 -21 -1 -21 -13 -3 -8 10
-19 15 -25 11 -7 -4 -12 -1 -12 8 0 18 -16 22 -22 5 -2 -5 -11 -7 -21 -4 -9 4
-14 12 -10 19 3 6 3 8 -2 4 -4 -4 -17 -3 -28 3 -14 8 -18 8 -13 0 4 -6 0 -11
-10 -11 -11 0 -15 -6 -11 -19 3 -13 1 -18 -9 -14 -7 2 -10 11 -8 18 3 7 1 16
-5 20 -6 3 -14 -1 -17 -9 -9 -24 -26 -19 -19 5 6 19 5 20 -8 8 -8 -8 -13 -17
-11 -21 2 -3 -5 -4 -16 -1 -10 3 -19 8 -18 12 2 18 -3 31 -13 31 -8 0 -8 -5 1
-15 9 -10 9 -15 1 -15 -6 0 -11 -6 -11 -14 0 -26 -221 -36 -857 -39 -248 -1
-450 -3 -448 -5 1 -2 76 -9 166 -17 159 -13 160 -14 39 -8 -69 3 -204 13 -300
22 l-175 17 715 7 c393 4 747 10 785 15 l70 7 -204 109 c-337 180 -523 256
-766 311 -602 137 -1319 43 -2115 -275 -58 -23 -127 -51 -155 -62 -27 -10 -45
-15 -40 -10 6 5 35 19 65 31 223 91 325 131 460 177 141 48 194 71 99 43 -30
-10 -42 -9 -54 1 -8 7 -18 10 -22 7 -3 -4 2 -10 12 -13 13 -5 8 -10 -22 -20
-21 -8 -39 -14 -40 -14 -1 0 0 10 2 23 4 21 3 21 -9 4 -9 -12 -16 -14 -21 -8
-3 6 -1 11 5 11 7 0 10 6 7 14 -4 10 7 20 31 30 85 35 -2 11 -200 -54 -116
-39 -213 -68 -215 -66 -2 2 76 31 174 65 464 162 864 255 1204 281 131 9 175
12 334 18 28 1 113 -3 190 -9z m-1535 -254 c0 -3 -10 -9 -21 -14 -20 -7 -20
-9 12 -29 19 -12 30 -22 26 -22 -4 0 -24 11 -43 24 l-35 24 28 10 c15 6 29 11
31 11 1 1 2 -1 2 -4z m-380 -109 c0 -6 -123 -47 -127 -42 -2 2 22 13 54 24 62
22 73 24 73 18z m-170 -60 c0 -6 -93 -37 -97 -32 -2 2 15 11 39 19 47 17 58
19 58 13z m356 -156 c460 -76 801 -125 1294 -185 157 -19 299 -36 315 -39 52
-8 -126 4 -205 14 -41 5 -151 19 -245 30 -167 20 -676 87 -725 95 -14 2 -79
13 -145 24 -229 37 -540 93 -544 97 -8 7 16 4 255 -36z m3691 -5 c0 -17 -24
-28 -32 -15 -4 6 -3 15 0 20 9 15 32 12 32 -5z m-483 -27 c-3 -5 -12 -2 -20 6
-20 21 -17 28 5 14 11 -7 17 -16 15 -20z m306 2 c6 -11 8 -20 6 -20 -3 0 -10
9 -16 20 -6 11 -8 20 -6 20 3 0 10 -9 16 -20z m570 -11 c0 -5 -11 -9 -25 -9
-14 0 -25 4 -25 9 0 5 11 9 25 9 14 0 25 -4 25 -9z m-373 -5 c-3 -3 -12 -4
-19 -1 -8 3 -5 6 6 6 11 1 17 -2 13 -5z m405 -1 c-6 -2 -10 -9 -6 -14 3 -5 0
-9 -5 -9 -6 0 -11 7 -11 15 0 8 8 15 18 14 10 0 12 -3 4 -6z m58 -11 c-8 -3
-18 -9 -21 -14 -3 -5 -8 -1 -11 10 -4 16 -1 18 21 14 17 -4 21 -7 11 -10z m57
-8 c-3 -3 -12 -4 -19 -1 -8 3 -5 6 6 6 11 1 17 -2 13 -5z m-172 -25 c315 -26
654 -118 905 -244 39 -19 70 -38 70 -40 0 -3 -31 11 -70 30 -193 97 -441 174
-695 215 -131 22 -398 39 -515 34 -151 -6 -965 -16 -960 -12 3 3 174 8 380 12
206 4 376 9 378 11 7 7 409 2 507 -6z m-4232 -6 c-13 -2 -35 -2 -50 0 -16 2
-5 4 22 4 28 0 40 -2 28 -4z m2370 0 c-24 -2 -62 -2 -85 0 -24 2 -5 4 42 4 47
0 66 -2 43 -4z m338 -11 c-140 -1 -258 1 -262 5 -5 5 110 6 254 3 l262 -5
-254 -3z m-2186 -47 c171 -24 400 -54 510 -67 110 -12 192 -24 183 -26 -26 -5
-361 35 -703 83 -170 24 -346 49 -390 54 l-80 10 85 -5 c47 -2 225 -25 395
-49z m1358 -82 c-13 -2 -33 -2 -45 0 -13 2 -3 4 22 4 25 0 35 -2 23 -4z m85
-10 c-10 -2 -28 -2 -40 0 -13 2 -5 4 17 4 22 1 32 -1 23 -4z m-655 -10 c-13
-2 -33 -2 -45 0 -13 2 -3 4 22 4 25 0 35 -2 23 -4z m817 -3 c47 -6 49 -7 15
-8 -22 0 -67 4 -100 8 -55 6 -56 7 -15 8 25 0 70 -3 100 -8z m-722 -7 c-10 -2
-28 -2 -40 0 -13 2 -5 4 17 4 22 1 32 -1 23 -4z m110 -10 c-10 -2 -28 -2 -40
0 -13 2 -5 4 17 4 22 1 32 -1 23 -4z m735 0 c-13 -2 -33 -2 -45 0 -13 2 -3 4
22 4 25 0 35 -2 23 -4z m-640 -10 c-13 -2 -33 -2 -45 0 -13 2 -3 4 22 4 25 0
35 -2 23 -4z m725 0 c-10 -2 -26 -2 -35 0 -10 3 -2 5 17 5 19 0 27 -2 18 -5z
m-630 -10 c-10 -2 -28 -2 -40 0 -13 2 -5 4 17 4 22 1 32 -1 23 -4z m719 1 c-3
-3 -12 -4 -19 -1 -8 3 -5 6 6 6 11 1 17 -2 13 -5z m-604 -11 c-13 -2 -33 -2
-45 0 -13 2 -3 4 22 4 25 0 35 -2 23 -4z m105 -10 c-10 -2 -28 -2 -40 0 -13 2
-5 4 17 4 22 1 32 -1 23 -4z m130 -10 c-10 -2 -28 -2 -40 0 -13 2 -5 4 17 4
22 1 32 -1 23 -4z m3267 -93 c10 -11 16 -20 13 -20 -3 0 -13 9 -23 20 -10 11
-16 20 -13 20 3 0 13 -9 23 -20z m66 -87 c13 -16 12 -17 -3 -4 -10 7 -18 15
-18 17 0 8 8 3 21 -13z m-6224 -390 c23 -54 101 -246 174 -428 141 -348 165
-392 237 -422 64 -27 35 -33 -148 -33 -185 0 -212 6 -145 34 19 8 38 22 41 31
4 9 -15 72 -41 141 l-48 124 -165 -2 -166 -3 -38 -94 c-46 -114 -48 -151 -12
-180 15 -12 37 -21 50 -21 15 0 24 -6 24 -15 0 -13 -22 -15 -140 -15 -151 0
-172 8 -106 44 19 10 45 34 59 52 13 19 100 225 193 459 93 234 174 425 180
425 6 0 29 -44 51 -97z m3083 -24 c0 -83 -3 -110 -12 -107 -7 3 -15 18 -19 34
-10 49 -28 73 -72 96 -36 18 -63 22 -185 26 l-142 5 2 -194 3 -193 99 3 c130
4 175 22 197 79 19 49 26 16 25 -120 -1 -101 -4 -142 -13 -145 -7 -3 -15 8
-18 24 -9 40 -18 54 -49 77 -22 17 -46 21 -137 24 l-109 4 0 -190 c0 -105 3
-197 6 -206 5 -13 24 -16 108 -16 192 0 276 39 329 152 18 37 38 68 45 68 16
0 16 6 -10 -147 l-22 -133 -338 0 c-268 0 -338 3 -338 13 0 7 13 18 30 24 17
6 34 23 40 38 13 35 14 774 0 810 -5 14 -26 35 -45 46 -19 12 -33 25 -30 29 3
5 152 9 330 10 l325 0 0 -111z m-1595 -189 c95 0 95 0 95 -25 0 -25 0 -25 -95
-25 l-96 0 3 -251 3 -251 28 -24 c34 -29 60 -30 132 -5 30 11 57 16 60 11 8
-13 -77 -78 -126 -96 -51 -18 -125 -13 -163 11 -52 34 -56 61 -56 344 l0 261
-50 0 c-27 0 -50 4 -50 8 0 5 48 58 108 118 l107 109 3 -92 3 -93 94 0z m4780
0 c95 0 95 0 95 -25 0 -25 0 -25 -95 -25 l-95 0 0 -246 0 -246 29 -29 c35 -34
63 -36 139 -10 29 10 55 14 58 10 7 -12 -41 -54 -91 -81 -57 -32 -158 -32
-201 -1 -55 39 -59 62 -59 345 l0 258 -52 0 c-29 0 -53 3 -53 6 0 4 51 57 113
118 l112 111 3 -92 3 -93 94 0z m-4129 -20 c106 -48 164 -125 185 -244 38
-219 -116 -416 -325 -416 -138 0 -240 61 -298 177 -31 63 -33 74 -33 168 1
119 18 167 89 243 102 109 243 136 382 72z m2024 -11 l0 -51 31 27 c92 77 202
92 297 40 59 -32 91 -70 130 -153 23 -49 27 -70 27 -147 0 -80 -4 -97 -32
-157 -41 -87 -109 -159 -176 -188 -67 -29 -177 -30 -242 -1 l-45 20 0 -122 c0
-141 15 -183 70 -194 69 -13 20 -23 -120 -23 -93 0 -150 4 -150 10 0 6 9 10
19 10 11 0 29 12 40 26 20 26 21 37 21 429 0 392 -1 403 -21 429 -11 14 -27
26 -35 26 -24 0 -16 20 9 21 12 0 51 11 87 23 92 33 90 33 90 -25z m1010 24
c84 -34 140 -126 140 -230 l0 -43 -221 0 -222 0 6 -66 c11 -143 95 -236 214
-237 57 0 132 27 148 53 4 6 15 8 24 5 11 -3 24 2 32 12 13 16 12 17 -4 4 -25
-20 -31 -8 -7 14 15 14 23 16 32 7 8 -8 1 -24 -26 -60 -70 -96 -138 -132 -250
-132 -94 0 -164 33 -217 103 -55 74 -74 136 -74 247 0 81 4 103 26 150 74 158
249 234 399 173z m441 -25 c1 -29 0 -60 -1 -68 -1 -8 18 4 42 26 67 61 115 87
165 88 36 1 49 -4 65 -24 27 -33 17 -75 -29 -122 -39 -40 -53 -41 -53 -2 0 30
-37 50 -75 40 -14 -4 -43 -24 -65 -46 l-40 -40 0 -209 0 -209 35 -31 c19 -17
35 -33 35 -36 0 -3 -63 -5 -140 -5 -77 0 -140 3 -140 8 0 4 14 15 30 24 17 9
35 29 40 43 15 39 13 468 -2 500 -7 15 -26 34 -42 43 l-31 16 35 9 c19 5 62
17 95 27 33 10 63 18 68 19 4 1 8 -23 8 -51z m-4996 -223 c0 -236 2 -263 18
-289 43 -65 140 -66 235 -3 l47 32 3 193 c1 106 -1 207 -6 225 -5 20 -20 40
-40 52 -53 34 -44 39 91 50 l77 6 0 -279 c0 -170 4 -291 11 -309 6 -18 24 -38
45 -49 18 -10 34 -22 34 -25 0 -4 -33 -12 -72 -18 -40 -7 -88 -14 -105 -17
l-33 -5 0 60 0 61 -47 -37 c-69 -52 -123 -73 -190 -74 -89 -1 -137 23 -171 86
-14 24 -18 74 -22 266 -5 251 -7 261 -57 280 -33 12 -28 27 10 34 87 16 134
23 152 21 19 -1 20 -8 20 -261z m2845 239 c0 -7 -7 -15 -16 -18 -21 -8 -16
-19 57 -138 l61 -98 69 94 c38 52 69 103 69 113 0 12 -11 25 -26 32 -15 6 -23
15 -19 19 8 8 151 12 183 5 31 -7 27 -15 -17 -36 -37 -17 -61 -45 -207 -242
l-22 -30 97 -145 c59 -89 110 -154 131 -168 19 -13 37 -27 38 -33 2 -5 -50 -9
-127 -9 -72 0 -131 4 -131 9 0 13 27 21 48 15 10 -4 13 -3 6 3 -6 4 -14 17
-17 27 -10 26 -121 205 -127 206 -7 0 -123 -156 -139 -188 -11 -20 -9 -24 18
-40 17 -9 31 -20 31 -24 0 -10 -194 -11 -203 -1 -4 3 10 16 30 27 36 20 204
227 218 269 5 12 -17 56 -66 134 -82 131 -119 177 -161 199 -16 8 -27 18 -24
22 8 13 246 8 246 -4z"/>
<path d="M3558 6263 c7 -3 16 -2 19 1 4 3 -2 6 -13 5 -11 0 -14 -3 -6 -6z"/>
<path d="M3495 6250 c-13 -5 -14 -9 -5 -9 8 0 24 4 35 9 13 5 14 9 5 9 -8 0
-24 -4 -35 -9z"/>
<path d="M3688 6223 c7 -3 16 -2 19 1 4 3 -2 6 -13 5 -11 0 -14 -3 -6 -6z"/>
<path d="M3625 6210 c-16 -7 -17 -9 -3 -9 9 -1 20 4 23 9 7 11 7 11 -20 0z"/>
<path d="M3440 6179 c0 -5 5 -7 10 -4 6 3 10 8 10 11 0 2 -4 4 -10 4 -5 0 -10
-5 -10 -11z"/>
<path d="M6250 5965 c14 -8 30 -14 35 -14 6 0 -1 6 -15 14 -14 8 -29 14 -35
14 -5 0 1 -6 15 -14z"/>
<path d="M6097 5940 c63 -38 118 -63 106 -48 -7 8 -10 18 -6 22 4 4 0 4 -9 1
-10 -4 -35 4 -61 19 -51 30 -78 36 -30 6z"/>
<path d="M6310 5940 c8 -5 22 -9 30 -9 10 0 8 3 -5 9 -27 12 -43 12 -25 0z"/>
<path d="M6388 5923 c12 -2 30 -2 40 0 9 3 -1 5 -23 4 -22 0 -30 -2 -17 -4z"/>
<path d="M6540 5913 c30 -3 57 -9 61 -14 4 -7 9 -4 12 5 6 14 -3 16 -61 14
-67 -2 -67 -2 -12 -5z"/>
<path d="M6631 5906 c2 -2 27 -5 54 -7 28 -1 56 -7 63 -12 8 -6 12 -6 12 1 0
6 8 13 18 15 9 3 -21 5 -67 6 -46 0 -82 -1 -80 -3z"/>
<path d="M6470 5881 c0 -5 7 -12 16 -15 14 -5 15 -4 4 9 -14 17 -20 19 -20 6z"/>
<path d="M7060 5851 c0 -16 28 -20 40 -5 8 9 9 14 2 14 -6 0 -13 -6 -15 -12
-4 -10 -6 -10 -6 0 -1 14 -21 17 -21 3z"/>
<path d="M2019 4667 l-66 -172 135 -3 c74 -1 136 -1 138 1 5 5 -128 347 -135
347 -3 0 -36 -78 -72 -173z"/>
<path d="M8251 4234 c0 -11 3 -14 6 -6 3 7 2 16 -1 19 -3 4 -6 -2 -5 -13z"/>
<path d="M8273 4183 c-19 -7 2 -40 37 -58 37 -19 57 -19 57 0 0 18 -13 20 -20
3 -4 -10 -8 -10 -15 0 -5 8 -13 14 -18 15 -5 1 -8 5 -6 10 1 4 -4 6 -10 5 -7
-2 -12 5 -12 15 1 9 1 17 0 16 0 0 -7 -3 -13 -6z"/>
<path d="M8532 4168 c-7 -7 -12 -8 -12 -3 0 5 -6 0 -14 -10 -12 -17 -17 -18
-41 -7 -14 7 -24 8 -21 3 8 -12 -13 -28 -44 -34 -21 -4 -20 -4 8 -6 21 -1 35
4 38 14 4 8 10 15 16 15 5 0 6 -4 3 -10 -3 -5 -3 -10 0 -10 13 0 62 29 74 44
16 19 10 21 -7 4z"/>
<path d="M4100 4722 c-22 -12 -46 -38 -65 -73 -30 -53 -30 -56 -30 -204 0
-159 6 -190 52 -253 33 -44 72 -62 135 -62 72 0 117 31 149 102 21 47 23 67
23 188 -1 157 -19 222 -79 280 -30 29 -43 34 -92 37 -43 3 -67 -1 -93 -15z"/>
<path d="M6425 4681 c-28 -16 -56 -35 -62 -43 -8 -9 -13 -81 -14 -211 -3 -184
-2 -199 17 -224 73 -98 212 -95 279 5 42 64 58 135 53 242 -4 77 -10 105 -31
147 -55 107 -148 140 -242 84z"/>
<path d="M6765 4269 c-4 -6 -5 -12 -2 -15 2 -3 7 2 10 11 7 17 1 20 -8 4z"/>
<path d="M6719 4203 c-13 -16 -12 -17 4 -4 9 7 17 15 17 17 0 8 -8 3 -21 -13z"/>
<path d="M6640 4178 c-15 -21 -17 -28 -6 -19 16 13 41 51 33 51 -2 0 -14 -15
-27 -32z"/>
<path d="M6635 4140 c-16 -11 -25 -20 -20 -20 6 0 24 9 40 20 17 11 26 20 20
20 -5 0 -23 -9 -40 -20z"/>
<path d="M6390 4120 c8 -5 20 -10 25 -10 6 0 3 5 -5 10 -8 5 -19 10 -25 10 -5
0 -3 -5 5 -10z"/>
<path d="M6299 4103 c-12 -16 -12 -17 2 -6 9 7 19 10 22 6 4 -3 7 -1 7 5 0 17
-16 15 -31 -5z"/>
<path d="M6500 4110 c-23 -7 -22 -8 10 -8 19 0 49 4 65 8 29 7 28 8 -10 8 -22
0 -51 -4 -65 -8z"/>
<path d="M6240 4083 c0 -6 4 -15 10 -18 11 -7 33 -45 26 -45 -2 0 -12 7 -21
16 -9 9 -19 13 -23 10 -3 -4 -2 -10 4 -14 6 -4 14 -18 18 -32 5 -18 5 -21 -3
-10 -5 8 -13 11 -17 7 -4 -3 -1 -13 6 -22 9 -11 9 -15 1 -15 -7 0 -11 -8 -10
-17 5 -50 -3 -84 -26 -111 l-25 -30 109 -1 110 0 -32 28 c-27 25 -31 36 -35
94 -3 46 -8 64 -16 61 -7 -3 -13 2 -13 10 0 8 6 12 14 9 9 -4 13 4 12 28 -1
24 -3 27 -6 12 -4 -21 -32 -34 -33 -15 -1 13 -50 67 -50 55z m54 -119 c3 -8 2
-12 -4 -9 -6 3 -10 10 -10 16 0 14 7 11 14 -7z"/>
<path d="M6296 4077 c-17 -13 -18 -14 -2 -20 10 -4 14 -3 11 2 -3 6 3 14 12
20 10 6 13 11 7 11 -5 0 -18 -6 -28 -13z"/>
<path d="M7150 4718 c-35 -24 -73 -89 -85 -145 l-7 -33 156 0 156 0 0 28 c0
51 -22 106 -55 139 -28 28 -40 33 -83 33 -34 0 -59 -7 -82 -22z"/>
<path d="M7391 4200 c-9 -5 -4 -7 13 -7 29 0 32 2 13 10 -8 3 -20 2 -26 -3z"/>
<path d="M7045 4170 c21 -24 26 -25 19 -6 -3 8 -13 17 -22 21 -13 5 -13 2 3
-15z"/>
<path d="M7195 4170 c3 -5 8 -10 11 -10 2 0 4 5 4 10 0 6 -5 10 -11 10 -5 0
-7 -4 -4 -10z"/>
<path d="M7323 4173 c-7 -2 -13 -12 -13 -21 0 -14 1 -14 13 0 6 9 19 18 27 21
13 5 13 5 0 5 -8 0 -21 -2 -27 -5z"/>
<path d="M7400 4169 c0 -5 5 -7 10 -4 6 3 10 8 10 11 0 2 -4 4 -10 4 -5 0 -10
-5 -10 -11z"/>
<path d="M7244 4160 c17 -6 36 -5 45 0 11 7 3 9 -29 9 -42 -1 -43 -1 -16 -9z"/>
<path d="M7380 4159 c0 -5 -4 -7 -10 -4 -5 3 -10 2 -10 -4 0 -5 -17 -15 -37
-22 -21 -7 -33 -14 -26 -16 15 -5 93 34 93 47 0 6 -2 10 -5 10 -3 0 -5 -5 -5
-11z"/>
<path d="M7236 4136 c3 -9 11 -16 16 -16 13 0 5 23 -10 28 -7 2 -10 -2 -6 -12z"/>
<path d="M7105 4130 c3 -5 11 -10 16 -10 6 0 7 5 4 10 -3 6 -11 10 -16 10 -6
0 -7 -4 -4 -10z"/>
<path d="M7197 4116 c-5 -13 2 -16 39 -16 25 0 43 4 40 9 -3 4 -17 6 -32 3
-15 -3 -29 0 -34 7 -5 9 -9 9 -13 -3z"/>
<path d="M7781 4274 c0 -11 3 -14 6 -6 3 7 2 16 -1 19 -3 4 -6 -2 -5 -13z"/>
<path d="M7790 4171 c0 -9 -9 -12 -24 -9 -14 3 -27 0 -30 -7 -2 -7 -16 -14
-29 -17 -20 -4 -24 -1 -19 11 4 13 1 12 -16 -3 -12 -11 -22 -21 -22 -23 0 -1
43 -3 96 -3 62 0 93 4 89 10 -4 6 -11 7 -17 4 -6 -4 -9 -3 -5 2 3 5 -1 18 -9
29 -8 11 -14 14 -14 6z m5 -32 c4 -5 -8 -9 -25 -9 -17 0 -29 4 -26 8 7 11 45
12 51 1z"/>
<path d="M7705 4160 c3 -5 8 -10 11 -10 2 0 4 5 4 10 0 6 -5 10 -11 10 -5 0
-7 -4 -4 -10z"/>
<path d="M5971 4130 c-9 -5 -4 -7 13 -7 29 0 32 2 13 10 -8 3 -20 2 -26 -3z"/>
</g>
</svg>
